<?xml version="1.0" encoding="UTF-8"?>
<svg id="Layer_1" data-name="Layer 1" xmlns="http://www.w3.org/2000/svg" viewBox="0 0 1080 1080">
  <defs>
    <style>
      .cls-1, .cls-2, .cls-3, .cls-4, .cls-5, .cls-6, .cls-7, .cls-8, .cls-9, .cls-10 {
        stroke-miterlimit: 10;
      }

      .cls-1, .cls-2, .cls-5, .cls-6, .cls-7, .cls-8 {
        stroke: #fff;
      }

      .cls-1, .cls-10 {
        fill: #f8e0ce;
      }

      .cls-11, .cls-3, .cls-12, .cls-9 {
        fill: #faf7ec;
      }

      .cls-13 {
        fill: #201b59;
        stroke: #f15d22;
      }

      .cls-13, .cls-3, .cls-12 {
        stroke-linecap: round;
      }

      .cls-2, .cls-4, .cls-8 {
        fill: none;
      }

      .cls-3, .cls-12, .cls-9 {
        stroke: #e3dba9;
      }

      .cls-14 {
        fill: #e3dba9;
      }

      .cls-12 {
        stroke-linejoin: round;
      }

      .cls-4, .cls-10 {
        stroke: #f16823;
      }

      .cls-5, .cls-6 {
        fill: #f16823;
      }

      .cls-6, .cls-8 {
        opacity: .6;
      }

      .cls-15 {
        fill: #eba03c;
      }

      .cls-7 {
        fill: #f9e0ce;
      }

      .cls-16 {
        fill: #f26722;
        font-family: Cinematografica-Bold, Cinematografica;
        font-size: 31.18px;
        font-weight: 700;
      }
    </style>
  </defs>
  <g>
    <path class="cls-4" d="M483.85,471.08h171.4c2.75,0,4.98,2.23,4.98,4.98v16.86c0,3.11-2.52,5.63-5.63,5.63h-170.23c-3.03,0-5.5-2.46-5.5-5.5v-17c0-2.75,2.23-4.98,4.98-4.98Z" transform="translate(-161.63 327.31) rotate(-28.25)"/>
    <line class="cls-4" x1="491.46" y1="511.17" x2="523.14" y2="525.35"/>
    <line class="cls-4" x1="610.57" y1="447.18" x2="642.25" y2="461.35"/>
    <line class="cls-4" x1="580.68" y1="463.24" x2="612.36" y2="477.41"/>
    <line class="cls-4" x1="550.55" y1="479.42" x2="582.23" y2="493.6"/>
    <line class="cls-4" x1="520.43" y1="495.61" x2="552.11" y2="509.79"/>
  </g>
  <g>
    <line class="cls-8" x1="644.18" y1="538.99" x2="640.13" y2="538.99"/>
    <line class="cls-8" x1="529.81" y1="538.99" x2="524.8" y2="538.99"/>
    <path class="cls-6" d="M654.02,481.83s-.56,3.26-1.51,8.77c-1.78,10.36-4.93,28.67-8.33,48.39h-119.38c-2.43-14.14-4.74-27.56-6.5-37.85h0c-.26-1.48-.51-2.91-.74-4.24-.01-.05-.01-.09-.02-.14-1.58-9.18-2.57-14.93-2.57-14.93h139.05Z"/>
    <polygon class="cls-5" points="543.73 538.99 529.81 538.99 523.25 502.38 522.04 495.59 527.8 496.75 530.53 497.3 536.48 498.5 537.38 503.51 543.73 538.99"/>
    <polygon class="cls-7" points="562.91 538.99 543.73 538.99 537.38 503.51 536.48 498.5 545.39 499.68 545.4 499.68 545.64 499.72 551.96 500.57 556.16 501.13 562.91 538.99"/>
    <polygon class="cls-5" points="580.56 538.99 562.87 538.99 556.16 501.13 562.81 501.45 577.76 502.18 578.25 508.51 580.56 538.99"/>
    <polygon class="cls-5" points="610.96 501.13 606.15 538.99 590.65 538.99 592.42 503.61 592.49 502.18 592.52 501.64 597.23 501.52 610.96 501.13"/>
    <polygon class="cls-1" points="633.46 498.5 632.56 503.49 632.56 503.5 626.15 538.99 606.17 538.99 610.96 501.13 612.59 500.94 633.46 498.5"/>
    <polygon class="cls-5" points="647.9 495.59 647.84 495.93 640.13 538.99 626.22 538.99 632.56 503.5 632.56 503.49 633.46 498.5 636.88 497.81 643.34 496.51 647.9 495.59"/>
    <polygon class="cls-1" points="592.52 502.18 592.44 503.61 590.67 538.99 580.56 538.99 578.25 508.51 577.76 502.18 592.52 502.18"/>
    <g>
      <g>
        <path class="cls-9" d="M501.53,426.95c-1.38,1.63-3.65,1.53-5.7,1.39-4.4-.01-4.48-5.73-2.85-8.67.23-.45-.17-.52-.54-.55-1.12-.06-1.91-1.17-1.85-2.27-.02-.36.05-.85-.39-.93-1.79.24-4.77-.61-4.1-2.98.13-.39.5-.62.47-.96-1.31-1.36-1.59-3.9.72-4.28.42-.06.87,0,1.28.11.41.11.7.18.79,0,.11-.19,0-.61-.02-.88-.38-2.53,1.25-5.1,3.69-5.86,2.88-1.05,6.53-.21,8.35,2.18.29.41.68.74,1.16.47.65-.38,1.53-.63,2.32-.65,2.58-.22,5.75.35,6.11,3.31.45,2.24.65,4.42-1.7,5.75-.74.46-1.21.66-.13.53.78-.11,1.92-.02,2.48.51,1.1.98,1.28,3.16.27,4.21-.72.6-.55,1.49-.84,2.29-.62,1.51-2.47,2.96-4.05,2.02-.3-.17-.61-.41-.92-.22-.62.59-1.17,1.09-2.21,1.14-.74.13-1.23-.14-1.4.2,0,.36.23,1.69-.28,2.94-.14.37-.34.74-.57,1.05l-.1.13Z"/>
        <g>
          <path class="cls-11" d="M500.2,419.69c-.07-1.37-.11-2.95.95-3.96,1.65-1.57,4.3-.71,5.4,1.15"/>
          <path class="cls-14" d="M500.2,419.69c-1.18-3.16,1.15-6.42,4.54-4.86.87.42,1.54,1.19,1.81,2.05-1.57-1.78-4.85-2.25-5.81.3-.29.74-.38,1.62-.54,2.51h0Z"/>
        </g>
        <g>
          <path class="cls-11" d="M501.69,412.25c2.86-6.27-3.51-7.49-9.53-6.51"/>
          <path class="cls-14" d="M501.69,412.25c1.52-4.79-1.55-6.15-5.76-6.41-1.24-.08-2.49-.1-3.77-.1,1.22-.39,2.49-.63,3.78-.68,4.64-.32,8.77,2.42,5.74,7.19h0Z"/>
        </g>
      </g>
      <g>
        <path class="cls-9" d="M577.43,351.84c.26.52.59,1.53-.33,1.47-1.8-.23-2.93,1.83-2.84,3.45-.06.42.12,1.07,0,1.42-2.27-.29-4.84.01-6.76,1.44-2.96,1.95-3.84,6.32-1.87,9.27,1.87,2.6,5.97,3.75,8.91,2.51.95-.44,1.69-1.43,1.92-2.38,1.81,4.37,7.89,3.91,9.79-.18.35-.9,1.37-2.2,2.38-1.33.89.89,1.52-.63,1.08-1.34-.24-.57-.64-1.13-.46-1.75.12-.39.45-.66.55-1.07.18-.67-.31-1.48-1-1.6-.63-.14-1.51.24-1.95-.38-.5-1.35-2.33-1.44-3.09-.23-.67-.27-1.51-.63-2.29-.43-.32.08-.15-.08-.22-.42-.02-.27-.05-.63-.08-1.01-.07-.76-.14-1.58-.16-1.85.22-.23,1.18.01,1.58,0,.24,0,.59.09.73-.02.15-.11-.02-.5.17-.64.5-.23,1.33-.42,1.57-1.01.7-1.41-1.38-3.8-2.37-4.94-.79-.9-1.64-2.01-2.85-2.13-1.61-.21-3.05,1.54-2.47,3.04l.05.12Z"/>
        <g>
          <path class="cls-11" d="M581.81,364.47c2.06-.94,4.87-.78,4.38,2.06"/>
          <path class="cls-14" d="M581.81,364.47c1.74-1.89,5.86-.91,4.38,2.06-.28-2.51-2.45-2.15-4.38-2.06h0Z"/>
        </g>
      </g>
      <path class="cls-9" d="M624.37,358.04s-.09-.1-.15-.14c-.16-.11-.37-.15-.56-.16-.36-.02-.74-.01-1.1.04-.62.1-1.17.47-1.54.97,0,0-.02,0-.02.01-.02,0-.03.02-.05.03-.04.03-.08.06-.11.09-.03.03-.06.07-.07.11-.02.04-.03.09-.03.14,0,.03.01.06.02.1-.05.14-.09.28-.1.42-.21.59-.27,1.24-.27,1.86,0,.69.15,1.45.72,1.9.18.14.4.21.61.08.15-.09.25-.24.33-.39.03-.05.06-.11.09-.16.02-.03.04-.06.06-.09.01-.02.01-.02.01-.02,0,0,0,0,.02-.02.09-.1.19-.2.29-.29.02-.02.05-.04.07-.06,0,0,.09-.07.04-.03.05-.04.1-.07.15-.11.12-.09.25-.16.38-.24.25-.15.5-.29.75-.43.3-.18.59-.38.71-.73.06-.16.07-.34.09-.51.02-.2.05-.39.07-.59.04-.35.11-.7.12-1.06.01-.37-.2-.65-.54-.73Z"/>
      <path class="cls-9" d="M471.38,503.27c.05-.42.07-.84.13-1.26.01-.08,0-.15-.02-.21.05-.06.09-.13.09-.21,0-.19-.16-.36-.35-.35-1.04.04-1.83.74-2.47,1.5-.31.37-.6.74-.79,1.18-.03.02-.07.03-.09.07-.01.03-.02.06-.03.09,0,0,0,0,0,0,0,0,0,0,0,0-.24.56-.42,1.16-.3,1.78,0,.02.01.03.01.04-.05.64.37,1.2.97,1.43.06.03.13.02.19.04.04.04.08.09.15.1.25.05.5.03.74,0,.05,0,.11,0,.16,0,.2,0,.39-.06.57-.14.03-.01.07-.02.1-.04.01,0,.03,0,.04-.02.01,0,.02-.02.03-.03.08-.04.15-.08.22-.14.06-.05.09-.12.13-.18.15-.18.28-.38.36-.6.15-.4.18-.83.18-1.25,0-.49-.05-.99.09-1.47.02-.14-.04-.26-.14-.35Z"/>
      <path class="cls-9" d="M480.75,465.2c0-.07,0-.14-.01-.22,0-.02,0-.03-.01-.05-.02-.04-.03-.09-.06-.13-.05-.07-.08-.1-.15-.15-.04-.03-.08-.04-.13-.05,0,0,0,0-.01,0-.02,0-.03-.02-.04-.03-.04-.02-.09-.03-.14-.03-.09,0-.19.03-.25.1-.03.03-.02.07-.04.1,0,0,0,0,0,0-.04.04-.07.08-.09.12-.04.06-.06.12-.09.18-.01.04-.03.08-.03.11-.01.07-.02.14-.02.21,0,.07.01.14.03.2.02.07.04.13.07.19.03.06.07.11.12.16,0,0,.01.01.02.02.01.01.05.04.07.06,0,0,0,.01,0,.02.03.03.07.06.11.07.04.02.09.03.14.03.09,0,.19-.03.25-.1.06-.07.11-.16.1-.25v-.06s0-.05,0-.07c.04-.03.09-.04.12-.09.01-.03.02-.06.04-.08.02-.06.01-.12,0-.17,0,.02,0,.04,0,.05,0-.05,0-.1,0-.15Z"/>
      <path class="cls-9" d="M485.11,464.24c0-.29-.35-.43-.56-.27-.04-.02-.08-.02-.12-.03-.08-.08-.16-.17-.23-.26-.17-.21-.33-.44-.47-.68-.13-.23-.25-.47-.35-.71-.11-.27-.23-.56-.46-.76-.23-.2-.54-.32-.84-.24-.29.08-.54.32-.78.49-.25.18-.54.35-.77.57-.1.1-.14.22-.15.34-.14.04-.26.2-.26.34,0,.21.16.33.35.35.47.06.83.46,1.03.86.21.41.37.93.32,1.39-.02.18-.08.36-.21.5-.16.17-.37.29-.54.46-.18.19-.29.42-.35.68-.04.19-.06.41-.19.53-.21.21-.06.62.25.61.67-.02,1.35-.04,2.02-.06.32,0,.64-.01.96-.03.29-.02.59-.08.82-.28.23-.21.31-.5.36-.79.06-.34.1-.68.12-1.02.05-.66.04-1.33.03-2Z"/>
      <path class="cls-9" d="M676.05,431.28c0-.5,0-1.01.12-1.5.05-.19-.06-.38-.25-.44,0,0-.02,0-.03,0-.07-.09-.18-.16-.33-.12-.85.21-1.63.66-2.26,1.27-.49.47-.91,1.08-1.15,1.74-.08.16-.16.33-.21.5-.01.03-.02.07-.03.11-.04.03-.09.06-.12.11-.11.2-.09.5-.09.73,0,.25.02.5.09.74.14.45.44.8.89.96.26.09.55.11.81.14.27.03.55.05.82.05.28,0,.59.03.85-.09.1-.05.19-.13.26-.22.11-.04.21-.09.3-.18.18-.17.29-.4.32-.64.04-.25.03-.51.02-.76,0-.27-.01-.54-.02-.81,0-.53-.02-1.06-.02-1.59Z"/>
      <g>
        <g>
          <path class="cls-11" d="M708.2,460.98c.02-.6.16-1.07.7-1.3,1.18-.34,1.87-1.16,2.91-1.73.34-.24.68-.76.36-1.13-.59-.49-1.96-.19-2.38.46-.25.38-.16.85,0,1.28"/>
          <path class="cls-14" d="M708.2,460.98c-.15-.57,0-1.31.62-1.57,1.04-.46,1.72-1.32,2.74-1.89,0,0-.05.03-.05.03.1-.08.22-.2.26-.3.04-.11.03-.09.03-.12l.06.06c-.09-.1-.34-.19-.61-.18-.5,0-1.16.14-1.4.63-.11.25-.11.59-.07.93-.18-.28-.35-.61-.32-1.01.1-.85.98-1.28,1.73-1.39,1.57-.2,2.17,1.23.88,2.2-.97.53-1.92,1.41-3.1,1.58-.34.02-.69.58-.78,1.03h0Z"/>
        </g>
        <path class="cls-12" d="M716.39,463.78c-.16-.15-.18-.43-.34-.43-.16,0-.1.4-.62.82-.45.37-.39.78-.09,1.44.46,1.08.52,2.36.09,3.47-.72,2.09-3.64,3.92-5.4,2.01-1.02-1.12-1.39-2.82-1.21-4.33.02-.32.04-.7-.11-.96-.47-.66-1.57-.29-2.23-.71-1.47-.75-2.15-2.82-1.92-4.35.48-1.17,1.8-.67,1.05-2.37-.47-1.39.58-2.38,1.78-2.86.48-.26.83-.67,1.13-1.13.79-1.25,2.23-2,3.65-2.36,2.45-.55,1.39,2.49,2.93,2.95.55.16.61.2,1.57.56.8.3,2.48.92,3.3,2.41.6,1.08.76,2.67.02,3.95-.94,1.64-3.11,2.36-3.62,1.89Z"/>
        <g>
          <path class="cls-11" d="M713.91,467.56c.89,2.04-2.27,1.74-3.14.46"/>
          <path class="cls-14" d="M713.91,467.56c1.07.95,0,2.09-1.11,1.97-.88-.06-1.87-.58-2.03-1.51.88.38,1.96.67,2.83.42.17-.07.28-.43.31-.88h0Z"/>
        </g>
      </g>
      <g>
        <path class="cls-11" d="M630.92,369.3c1.59-.52,2.44.43,2.49,1.99"/>
        <path class="cls-14" d="M630.92,369.3c1.32-1.49,3.45.38,2.49,1.99-.83-1.3-.91-1.68-2.49-1.99h0Z"/>
      </g>
      <path class="cls-9" d="M655.96,399.41c-.02,2.48-4.65,3.75-6.66,3.55-.43-.08-.76-.36-1.01-.7-1.36-1.89-2.76-4.58-1.28-6.79.22-.39.71-.73,1.03-.97.03-.05-.07-.06-.25-.07-3.59-.36-3.36-5.07-.58-6.51.3-.19.64-.29.73-.64.06-.51.21-1.25.7-1.49.17-.07.27.2.35.34.37.67.93-.02,1.3-.31.58-.47,1.59-.28,1.68.51.08.32-.2.74-.1,1.03.08.16.33.17.5.2.53.07.64.41.45.87-.13.43-.39.83-.52,1.23-.02.18.14.22.28.29.53.19.79.81.84,1.34.02.11.01.14.03.01.06-.66.71-.97,1.3-.65.14.02.04-.12.04-.26-.09-.47.19-.96.6-1.22.54-.38,1.64-.65,1.92.15.05.5,0,.63.58.5,1.77-.58,2.56.41,2.57,2.18,0,.41-.17.83-.54,1-.56.29-1.46.24-2.07.38-.23.09-.16.48-.26.71-.15.38-.48.64-.82.87-.45.32-1.15.57-1.26,1.12-.06,1.09.56,2.13.45,3.24v.09Z"/>
      <g>
        <path class="cls-11" d="M647.69,399.31c2.24,1.61,5.1,1.1,7.11-.69"/>
        <path class="cls-14" d="M647.69,399.31c2.56.92,4.7.44,7.11-.69-1.37,2.37-5.36,3.01-7.11.69h0Z"/>
      </g>
      <g>
        <path class="cls-15" d="M535.16,372.84c-.53-.58-1-1.2-1.42-1.86-.11-.17-.21-.34-.31-.52-.02-.03-.05-.05-.08-.07,0-.03,0-.05,0-.09,0,0,0-.01,0-.02,0-.03-.02-.06-.03-.08-.03-.06-.09-.12-.15-.15,0,0,0,0,0,0-.02,0-.05-.02-.07-.03,0,0-.01,0-.02,0-.02,0-.07-.01-.1-.01-.01,0-.02,0-.03,0-.04,0-.08-.03-.12-.02-.09.02-.14.08-.17.15-.02.02-.05.04-.07.06-.07.07-.13.15-.18.23-.02.03-.03.07-.05.1-.2.15-.38.32-.56.47-.3.25-.66.47-1.02.64-.13.06-.19.27-.1.39.59.79,1.28,1.51,2.06,2.13.2.16.45.05.48-.2,0,.04.02-.06.02-.07-.01.03.03-.05.04-.07.02-.03.02-.03,0-.02.01-.02.03-.03.04-.05.03-.03.06-.06.09-.08-.02.02.06-.03.07-.04.03-.02.07-.04.09-.05.08-.03.17-.06.26-.08.4-.09.81-.14,1.21-.2.22-.04.25-.33.13-.47Z"/>
        <path class="cls-9" d="M531.35,368.56c2.11-2.16,9.07-3.27,10.47.11,1.3,3.06.35,6.16-2.1,6.73,2.14.03,3.41,2.74,1.95,4.39-.59.91-1.98,1.05-2.52,1.92-.21.46.01,1.04.16,1.55.68,2.01.36,4.47-1.45,5.67-3.74,2.11-5.57-1.06-5.19-4.68-.03-.38-.09-.95-.41-1.14-.55-.4-1.82.18-2.89.3-2.56.38-5.48.16-7.47-1.64-4.43-4.51,1.25-11.33,6.75-8.49,1.51.48,2.79,2.75,4.22,2.93.58-.03.87-.76,1.29-1.04.66-.47,1.9.76,1.96-.62-.22-1.89-1.95-4.04-3.1-5.55-1.04-.88-1.41.9-1.98,1.46-.76.75-1.84,1.15-2.12,2.27"/>
      </g>
      <g>
        <path class="cls-11" d="M526.55,375.43c-1.6,2.86-.82,4.69,2.41,5.26"/>
        <path class="cls-14" d="M526.55,375.43c-.33,1.6-.81,3.4.85,4.37.46.31,1,.57,1.56.89-3.44.5-4.92-2.96-2.41-5.26h0Z"/>
      </g>
      <g>
        <path class="cls-9" d="M679.89,487.37c-.07.43.04,1.02.48,1.06.28.02.66-.19.8.05.04.08.04.17.02.25-.22.93-1.53,1.05-2.18,1.75-.27.29-.49.72-.88.73-.95.03-.52-1.36-.74-1.82-.39-.84-1.09-.57-1.63-1.17-.66-.74-.32-1.76.29-2.47.18-.21.56-.71.89-.69.58.03.2.47.54.68,1,.63,2.72-.27,2.4,1.62Z"/>
        <g>
          <path class="cls-11" d="M686.17,486.21c.34-.17.78-.12,1.08.13s.43.67.33,1.04"/>
          <path class="cls-14" d="M686.17,486.21c.2-.58.97-.61,1.4-.26.43.36.54,1.12,0,1.42-.23-.35-.4-.47-.65-.65-.23-.21-.38-.35-.76-.51h0Z"/>
        </g>
        <path class="cls-9" d="M673.44,488.23c-.42.38-1.12.34-1.66.48-1.08.14-1.55,1.53-.61,2.14.2.13.44.26.63.4,1.04.89-.21,2.42.09,3.55.11.48.57.64,1.12.49,1.02-.2,1.65-1.12,2.38-1.76.74-.48.94.17.64.78-.42.87.27,1.83,1.28,1.55.55-.11,1.11-.42,1.63-.36.9.1,1.6,1.08,2.56.82,1.42-.22,2.73-1.73,1.55-3.02-.28-.53-2.3-1.01-.88-1.4.54-.13.97-.37,1.17-.9.12-.23.25-.54.53-.51.53.07.75.84,1.05,1.23.74,1.14,2.81.51,3.15-.77.11-.38.05-.89.36-1.16.43-.31,1.13-.27,1.53-.67.32-.27.5-.67.56-1.11.18-2.21-.91-4.63-3.45-4.23-.38-.04-.41-.28-.41-.63.02-.41-.02-.89-.2-1.29-.69-1.67-3.07-2.31-4.6-1.49-.71.37-.62,2.06-1.63,1.91-.66-.23-.04-.88-.15-1.34-.45-1.18-2.08-2.35-3.31-2.27-.67.07-.96.82-1.34,1.12-.21.16-.46.29-.68.43-.4.24-.52.82-.72,1.08-.16.23-.48.31-.82.52-.76.52-.53,1.6.2,2.08.54.46,1.69.55,1.78,1.36.03.62-.98.98-1.22,1.63-.18.39-.18.89-.44,1.24l-.09.1Z"/>
        <g>
          <path class="cls-11" d="M676.01,482.55c.58.39,1.74.94,2.29.31.06-.03.18-.08.25-.1"/>
          <path class="cls-14" d="M676.01,482.55c.93-.14,1.33.18,2.14.18,0,0,.07-.05.07-.05.33.03.37.11.15.36,0,0,.07-.05.07-.05-.44,1.13-2.22.61-2.44-.44h0Z"/>
        </g>
      </g>
      <path class="cls-9" d="M560.45,435.57c1.84-.23,3.62-.97,5.09-2.12,2.72-2.12,4.27-5.77,3.55-9.15-.34-1.61-1.15-3.08-2-4.49-.71-1.18-1.49-2.37-2.67-3.08-.79-.48-1.7-.7-2.59-.92-1.3-.32-2.66-.63-3.95-.28-1.89.51-3.15,2.28-4.87,3.18-.63-.72-1.6-1.05-2.55-1.15-2.62-.27-5.31,1.15-6.67,3.4s-1.37,5.23-.12,7.55c.59,1.1,1.65,2.14,2.89,2.02-1.61,0-3.15,1.19-3.54,2.75-.14.57-.15,1.16-.11,1.74.2,2.66,1.56,5.28,3.82,6.7s5.41,1.44,7.51-.2c.41-.32.79-.72.97-1.21-.02.54.32,1.05.77,1.35s1,.4,1.54.43c1.97.11,3.98-.79,5.21-2.34,1.23-1.55,1.64-3.57,2-5.51"/>
      <g>
        <g>
          <path class="cls-11" d="M588.67,409.44c1.12.13,2.35.35,3.06,1.22.54.66.65,1.57.67,2.42.08,3.31-1.01,6.63-3.02,9.25"/>
          <path class="cls-14" d="M588.67,409.44c5.64-.56,4.56,6.23,3.03,9.61-.56,1.24-1.36,2.36-2.32,3.29,1.78-3.38,3.11-7.27,2.31-11.01-.39-1.09-1.75-1.56-3.02-1.89h0Z"/>
        </g>
        <path class="cls-3" d="M581.65,425.21c-2.72,2.94-7.39,3.04-11.1,2.61-3.57-1.02-4.24-9.21-3.18-12.12,1.37-2.35,4.42-2.99,6.95-3.03.01-.18-.34-.52-.43-.72-.94-1.34-1.32-2.99-.56-4.47,1.26-2.95,4.22-5.27,7.46-5.17,2.79.11,5.56,2.18,6.01,5.01.04.3-.04-.14-.03-.33-.02-1.79,1.68-3.06,3.34-3.21,6.24-.57,9.57,6.7,6.27,11.66-.09.23-.58.6-.05.57,3.33.67,2.44,5.13,1.69,7.49-1,2.42-3.91,3.52-6.39,3.3-.12-.01-.22-.02-.24.01.24.66.48,1.67.14,2.68-1.07,3.13-6.59,3.16-7.03,3.16-.63,0-5.37-.04-6.46-2.82-.35-.9-.21-1.8-.04-2.42"/>
      </g>
      <g>
        <path class="cls-12" d="M612.03,435c-5.94,9.62-21.04,5.18-19.21-6.44.12-.73.71-2.59,2.25-3.26.69-.3,1.36-.29,1.8-.23-.41-.32-.98-.87-1.29-1.71-.74-1.97.48-4.09,1.62-5.2,1.83-1.77,4.99-2.39,6.89-1.01.6.43.95.97,1.15,1.36-.09-.43-.18-1.15.06-1.95.46-1.52,1.76-2.28,2.26-2.54,2.6-1.36,5.84-.4,8.06,1.26,1.69,1.27,1.58,3.63,1.61,4.05.05.71-.02,1.3-.1,1.71.32-.26.75-.52,1.29-.58,3.27-.34,8.13,7.23,6.04,10.61-.75,1.21-2.71,2.42-4.45,2.02-.44-.1-.79-.29-1.03-.45.04.48.04,1.22-.19,2.07-.65,2.38-2.61,3.58-3.04,3.82-3.17,1.82-6.64.04-6.87-.08"/>
        <g>
          <path class="cls-11" d="M606.21,420.2c2.24-.54,4.65-.3,6.74.66,1.76.81,3.38,2.29,3.7,4.21"/>
          <path class="cls-14" d="M606.21,420.2c3.76-1.74,10.18.17,10.44,4.87-1.73-3.97-6.43-5.02-10.44-4.87h0Z"/>
        </g>
      </g>
      <path class="cls-9" d="M524.12,471.88c1.84-.23,3.62-.97,5.09-2.12,2.72-2.12,4.27-5.77,3.55-9.15-.34-1.61-1.15-3.08-2-4.49-.71-1.18-1.49-2.37-2.67-3.08-.79-.48-1.7-.7-2.59-.92-1.3-.32-2.66-.63-3.95-.28-1.89.51-3.15,2.28-4.87,3.18-.63-.72-1.6-1.05-2.55-1.15-2.62-.27-5.31,1.15-6.67,3.4s-1.37,5.23-.12,7.55c.59,1.1,1.65,2.14,2.89,2.02-1.61,0-3.15,1.19-3.54,2.75-.14.57-.15,1.16-.11,1.74.2,2.66,1.56,5.28,3.82,6.7s5.41,1.44,7.51-.2c.41-.32.79-.72.97-1.21-.02.54.32,1.05.77,1.35s1,.4,1.54.43c1.97.11,3.98-.79,5.21-2.34,1.23-1.55,1.64-3.57,2-5.51"/>
      <g>
        <g>
          <path class="cls-11" d="M527.61,479.15c1.12.13,2.35.35,3.06,1.22.54.66.65,1.57.67,2.42.08,3.31-1.01,6.63-3.02,9.25"/>
          <path class="cls-14" d="M527.61,479.15c5.64-.56,4.56,6.23,3.03,9.61-.56,1.24-1.36,2.36-2.32,3.29,1.78-3.38,3.11-7.27,2.31-11.01-.39-1.09-1.75-1.56-3.02-1.89h0Z"/>
        </g>
        <path class="cls-3" d="M520.59,494.92c-2.72,2.94-7.39,3.04-11.1,2.61-3.57-1.02-4.24-9.21-3.18-12.12,1.37-2.35,4.42-2.99,6.95-3.03.01-.18-.34-.52-.43-.72-.94-1.34-1.32-2.99-.56-4.47,1.26-2.95,4.22-5.27,7.46-5.17,2.79.11,5.56,2.18,6.01,5.01.04.3-.04-.14-.03-.33-.02-1.79,1.68-3.06,3.34-3.21,6.24-.57,9.57,6.7,6.27,11.66-.09.23-.58.6-.05.57,3.33.67,2.44,5.13,1.69,7.49-1,2.42-3.91,3.52-6.39,3.3-.12-.01-.22-.02-.24.01.24.66.48,1.67.14,2.68-1.07,3.13-6.59,3.16-7.03,3.16-.63,0-5.37-.04-6.46-2.82-.35-.9-.21-1.8-.04-2.42"/>
        <g>
          <path class="cls-12" d="M537.52,448.86c-5.94,9.62-21.04,5.18-19.21-6.44.12-.73.71-2.59,2.25-3.26.69-.3,1.36-.29,1.8-.23-.41-.32-.98-.87-1.29-1.71-.74-1.97.48-4.09,1.62-5.2,1.83-1.77,4.99-2.39,6.89-1.01.6.43.95.97,1.15,1.36-.09-.43-.18-1.15.06-1.95.46-1.52,1.76-2.28,2.26-2.54,2.6-1.36,5.84-.4,8.06,1.26,1.69,1.27,1.58,3.63,1.61,4.05.05.71-.02,1.3-.1,1.71.32-.26.75-.52,1.29-.58,3.27-.34,8.13,7.23,6.04,10.61-.75,1.21-2.71,2.42-4.45,2.02-.44-.1-.79-.29-1.03-.45.04.48.04,1.22-.19,2.07-.65,2.38-2.61,3.58-3.04,3.82-3.17,1.82-6.64.04-6.87-.08"/>
          <g>
            <path class="cls-11" d="M531.69,434.06c2.24-.54,4.65-.3,6.74.66,1.76.81,3.38,2.29,3.7,4.21"/>
            <path class="cls-14" d="M531.69,434.06c3.76-1.74,10.18.17,10.44,4.87-1.73-3.97-6.43-5.02-10.44-4.87h0Z"/>
          </g>
        </g>
      </g>
      <path class="cls-9" d="M625.97,451.64c1.25,1.38,2.88,2.41,4.65,2.95,3.3,1.01,7.18.18,9.53-2.34,1.12-1.21,1.86-2.71,2.53-4.22.55-1.26,1.08-2.58.99-3.95-.06-.92-.4-1.79-.73-2.65-.49-1.24-1.02-2.54-2.04-3.4-1.5-1.25-3.67-1.27-5.41-2.16.23-.93-.06-1.92-.53-2.75-1.29-2.3-3.99-3.69-6.62-3.51-2.63.18-5.07,1.88-6.25,4.24-.56,1.11-.81,2.58,0,3.52-.92-1.32-2.78-1.89-4.29-1.32-.55.21-1.03.54-1.49.91-2.06,1.69-3.43,4.31-3.29,6.97s1.92,5.26,4.47,6.03c.5.15,1.04.24,1.55.1-.46.29-.68.86-.66,1.4s.25,1.05.53,1.51c1.04,1.68,2.93,2.81,4.9,2.92,1.97.11,3.86-.71,5.66-1.53"/>
      <g>
        <g>
          <path class="cls-11" d="M652.93,462.79c.53.99,1.06,2.12.76,3.21-.23.82-.91,1.43-1.59,1.94-2.66,1.96-6.01,2.98-9.31,2.84"/>
          <path class="cls-14" d="M652.93,462.79c3.7,4.3-2.48,7.31-6.13,8-1.34.25-2.71.24-4.02,0,2.65-.29,5.14-.99,7.39-2.21,2.64-1.46,4.18-2.49,2.76-5.78h0Z"/>
        </g>
        <path class="cls-3" d="M635.99,466.09c-3.97-.53-6.73-4.31-8.51-7.59-1.21-3.5,5.1-8.76,8.1-9.56,2.71-.23,4.98,1.9,6.47,3.95.15-.09.23-.57.34-.76.56-1.54,1.69-2.8,3.34-3.03,3.14-.66,6.74.43,8.52,3.14,1.52,2.35,1.41,5.8-.65,7.79-.22.2.09-.11.25-.22,1.45-1.04,3.46-.38,4.54.89,4.05,4.78,0,11.68-5.95,11.83-.24.06-.82-.13-.5.28,1.36,3.11-2.8,4.94-5.17,5.68-2.56.57-5.13-1.18-6.37-3.33-.06-.11-.11-.2-.15-.19-.4.58-1.09,1.35-2.12,1.65-3.18.93-6.37-3.58-6.62-3.94-.36-.52-3.05-4.42-1.4-6.91.53-.8,1.36-1.21,1.96-1.42"/>
      </g>
      <g>
        <g>
          <path class="cls-11" d="M652.07,480.94c.53.99,1.06,2.12.76,3.21-.23.82-.91,1.43-1.59,1.94-2.66,1.96-6.01,2.98-9.31,2.84"/>
          <path class="cls-14" d="M652.07,480.94c3.7,4.3-2.48,7.31-6.13,8-1.34.25-2.71.24-4.02,0,2.65-.29,5.14-.99,7.39-2.21,2.64-1.46,4.18-2.49,2.76-5.78h0Z"/>
        </g>
        <path class="cls-3" d="M635.12,484.25c-3.97-.53-6.73-4.31-8.51-7.59-1.21-3.5,5.1-8.76,8.1-9.56,2.71-.23,4.98,1.9,6.47,3.95.15-.09.23-.57.34-.76.56-1.54,1.69-2.8,3.34-3.03,3.14-.66,6.74.43,8.52,3.14,1.52,2.35,1.41,5.8-.65,7.79-.22.2.09-.11.25-.22,1.45-1.04,3.46-.38,4.54.89,4.05,4.78,0,11.68-5.95,11.83-.24.06-.82-.13-.5.28,1.36,3.11-2.8,4.94-5.17,5.68-2.56.57-5.13-1.18-6.37-3.33-.06-.11-.11-.2-.15-.19-.4.58-1.09,1.35-2.12,1.65-3.18.93-6.37-3.58-6.62-3.94-.36-.52-3.05-4.42-1.4-6.91.53-.8,1.36-1.21,1.96-1.42"/>
      </g>
      <path class="cls-9" d="M596.86,457.29c1.72.71,3.63.94,5.47.67,3.41-.5,6.56-2.92,7.6-6.2.5-1.57.52-3.25.47-4.9-.04-1.37-.13-2.8-.8-4-.45-.8-1.13-1.45-1.8-2.08-.97-.92-2.01-1.86-3.3-2.19-1.89-.49-3.86.43-5.81.37-.2-.94-.88-1.7-1.66-2.26-2.15-1.53-5.19-1.62-7.48-.33-2.29,1.29-3.77,3.88-3.83,6.51-.03,1.25.38,2.68,1.52,3.18-1.4-.8-3.32-.52-4.44.64-.4.42-.7.93-.95,1.46-1.14,2.41-1.25,5.36.01,7.71s3.99,3.92,6.63,3.53c.52-.08,1.04-.23,1.44-.57-.29.46-.24,1.07,0,1.55s.67.85,1.13,1.14c1.66,1.07,3.85,1.28,5.68.54,1.83-.74,3.18-2.3,4.46-3.81"/>
      <g>
        <g>
          <path class="cls-11" d="M585.72,431.11c1.12.13,2.35.35,3.06,1.22.54.66.65,1.57.67,2.42.08,3.31-1.01,6.63-3.02,9.25"/>
          <path class="cls-14" d="M585.72,431.11c5.64-.56,4.56,6.23,3.03,9.61-.56,1.24-1.36,2.36-2.32,3.29,1.78-3.38,3.11-7.27,2.31-11.01-.39-1.09-1.75-1.56-3.02-1.89h0Z"/>
        </g>
        <path class="cls-3" d="M578.7,446.88c-2.72,2.94-7.39,3.04-11.1,2.61-3.57-1.02-4.24-9.21-3.18-12.12,1.37-2.35,4.42-2.99,6.95-3.03.01-.18-.34-.52-.43-.72-.94-1.34-1.32-2.99-.56-4.47,1.26-2.95,4.22-5.27,7.46-5.17,2.79.11,5.56,2.18,6.01,5.01.04.3-.04-.14-.03-.33-.02-1.79,1.68-3.06,3.34-3.21,6.24-.57,9.57,6.7,6.27,11.66-.09.23-.58.6-.05.57,3.33.67,2.44,5.13,1.69,7.49-1,2.42-3.91,3.52-6.39,3.3-.12-.01-.22-.02-.24.01.24.66.48,1.67.14,2.68-1.07,3.13-6.59,3.16-7.03,3.16-.63,0-5.37-.04-6.46-2.82-.35-.9-.21-1.8-.04-2.42"/>
      </g>
      <g>
        <path class="cls-12" d="M609.08,456.67c-5.94,9.62-21.04,5.18-19.21-6.44.12-.73.71-2.59,2.25-3.26.69-.3,1.36-.29,1.8-.23-.41-.32-.98-.87-1.29-1.71-.74-1.97.48-4.09,1.62-5.2,1.83-1.77,4.99-2.39,6.89-1.01.6.43.95.97,1.15,1.36-.09-.43-.18-1.15.06-1.95.46-1.52,1.76-2.28,2.26-2.54,2.6-1.36,5.84-.4,8.06,1.26,1.69,1.27,1.58,3.63,1.61,4.05.05.71-.02,1.3-.1,1.71.32-.26.75-.52,1.29-.58,3.27-.34,8.13,7.23,6.04,10.61-.75,1.21-2.71,2.42-4.45,2.02-.44-.1-.79-.29-1.03-.45.04.48.04,1.22-.19,2.07-.65,2.38-2.61,3.58-3.04,3.82-3.17,1.82-6.64.04-6.87-.08"/>
        <g>
          <path class="cls-11" d="M603.26,441.87c2.24-.54,4.65-.3,6.74.66,1.76.81,3.38,2.29,3.7,4.21"/>
          <path class="cls-14" d="M603.26,441.87c3.76-1.74,10.18.17,10.44,4.87-1.73-3.97-6.43-5.02-10.44-4.87h0Z"/>
        </g>
      </g>
      <path class="cls-9" d="M543.91,467.46c1.72.71,3.63.94,5.47.67,3.41-.5,6.56-2.92,7.6-6.2.5-1.57.52-3.25.47-4.9-.04-1.37-.13-2.8-.8-4-.45-.8-1.13-1.45-1.8-2.08-.97-.92-2.01-1.86-3.3-2.19-1.89-.49-3.86.43-5.81.37-.2-.94-.88-1.7-1.66-2.26-2.15-1.53-5.19-1.62-7.48-.33s-3.77,3.88-3.83,6.51c-.03,1.25.38,2.68,1.52,3.18-1.4-.8-3.32-.52-4.44.64-.4.42-.7.93-.95,1.46-1.14,2.41-1.25,5.36.01,7.71,1.26,2.35,3.99,3.92,6.63,3.53.52-.08,1.04-.23,1.44-.57-.29.46-.24,1.07,0,1.55s.67.85,1.13,1.14c1.66,1.07,3.85,1.28,5.68.54,1.83-.74,3.18-2.3,4.46-3.81"/>
      <g>
        <g>
          <path class="cls-11" d="M545.34,477.52c.91.67,1.87,1.46,2.06,2.57.14.84-.2,1.69-.61,2.44-1.56,2.92-4.15,5.27-7.19,6.56"/>
          <path class="cls-14" d="M545.34,477.52c5.19,2.32.89,7.65-2.1,9.85-1.1.8-2.35,1.38-3.64,1.72,3.21-2.06,6.29-4.79,7.44-8.44.2-1.14-.75-2.22-1.7-3.13h0Z"/>
        </g>
        <path class="cls-3" d="M531.45,487.78c-3.81,1.22-7.93-1-10.94-3.21-2.6-2.64.85-10.1,3.21-12.11,2.35-1.37,5.32-.42,7.54.79.1-.15-.04-.62-.02-.84-.15-1.63.32-3.25,1.72-4.17,2.55-1.95,6.28-2.5,9.04-.82,2.38,1.47,3.76,4.64,2.75,7.32-.12.28.03-.14.13-.3.87-1.56,2.96-1.83,4.49-1.14,5.71,2.59,5.02,10.55-.3,13.23-.19.15-.8.23-.33.47,2.56,2.22-.41,5.66-2.23,7.35-2.07,1.61-5.14,1.13-7.18-.28-.1-.07-.18-.13-.22-.11-.12.7-.41,1.69-1.21,2.4-2.47,2.2-7.29-.5-7.67-.72-.55-.32-4.65-2.68-4.22-5.64.14-.96.71-1.67,1.16-2.12"/>
      </g>
      <g>
        <path class="cls-12" d="M566.98,454.26c-9.91,5.44-20.86-5.87-13.53-15.07.46-.58,1.89-1.9,3.56-1.73.75.08,1.33.42,1.68.69-.2-.48-.42-1.24-.28-2.12.33-2.07,2.44-3.33,3.97-3.72,2.46-.64,5.52.38,6.49,2.52.31.67.35,1.31.33,1.75.13-.42.41-1.09,1.02-1.67,1.15-1.1,2.66-1.11,3.22-1.09,2.93.1,5.28,2.54,6.39,5.07.85,1.94-.42,3.94-.6,4.31-.31.64-.66,1.12-.93,1.44.41-.07.91-.09,1.41.13,3.01,1.31,3.5,10.3.02,12.21-1.25.68-3.56.77-4.87-.44-.33-.3-.54-.64-.68-.91-.2.44-.56,1.08-1.18,1.71-1.74,1.75-4.03,1.83-4.53,1.83-3.65.02-5.79-3.24-5.93-3.46"/>
        <g>
          <path class="cls-11" d="M569.21,438.51c2.21.63,4.19,2.03,5.54,3.9,1.13,1.58,1.81,3.66,1.14,5.48"/>
          <path class="cls-14" d="M569.21,438.51c4.13.34,8.77,5.17,6.68,9.38.45-4.3-3.12-7.53-6.68-9.38h0Z"/>
        </g>
      </g>
      <path class="cls-9" d="M623.02,473.31c1.25,1.38,2.88,2.41,4.65,2.95,3.3,1.01,7.18.18,9.53-2.34,1.12-1.21,1.86-2.71,2.53-4.22.55-1.26,1.08-2.58.99-3.95-.06-.92-.4-1.79-.73-2.65-.49-1.24-1.02-2.54-2.04-3.4-1.5-1.25-3.67-1.27-5.41-2.16.23-.93-.06-1.92-.53-2.75-1.29-2.3-3.99-3.69-6.62-3.51s-5.07,1.88-6.25,4.24c-.56,1.11-.81,2.58,0,3.52-.92-1.32-2.78-1.89-4.29-1.32-.55.21-1.03.54-1.49.91-2.06,1.69-3.43,4.31-3.29,6.97s1.92,5.26,4.47,6.03c.5.15,1.04.24,1.55.1-.46.29-.68.86-.66,1.4s.25,1.05.53,1.51c1.04,1.68,2.93,2.81,4.9,2.92,1.97.11,3.86-.71,5.66-1.53"/>
      <g>
        <g>
          <path class="cls-11" d="M652.07,480.94c.53.99,1.06,2.12.76,3.21-.23.82-.91,1.43-1.59,1.94-2.66,1.96-6.01,2.98-9.31,2.84"/>
          <path class="cls-14" d="M652.07,480.94c3.7,4.3-2.48,7.31-6.13,8-1.34.25-2.71.24-4.02,0,2.65-.29,5.14-.99,7.39-2.21,2.64-1.46,4.18-2.49,2.76-5.78h0Z"/>
        </g>
        <path class="cls-3" d="M635.12,484.25c-3.97-.53-6.73-4.31-8.51-7.59-1.21-3.5,5.1-8.76,8.1-9.56,2.71-.23,4.98,1.9,6.47,3.95.15-.09.23-.57.34-.76.56-1.54,1.69-2.8,3.34-3.03,3.14-.66,6.74.43,8.52,3.14,1.52,2.35,1.41,5.8-.65,7.79-.22.2.09-.11.25-.22,1.45-1.04,3.46-.38,4.54.89,4.05,4.78,0,11.68-5.95,11.83-.24.06-.82-.13-.5.28,1.36,3.11-2.8,4.94-5.17,5.68-2.56.57-5.13-1.18-6.37-3.33-.06-.11-.11-.2-.15-.19-.4.58-1.09,1.35-2.12,1.65-3.18.93-6.37-3.58-6.62-3.94-.36-.52-3.05-4.42-1.4-6.91.53-.8,1.36-1.21,1.96-1.42"/>
      </g>
      <path class="cls-9" d="M569.64,484.96c1.84-.23,3.62-.97,5.09-2.12,2.72-2.12,4.27-5.77,3.55-9.15-.34-1.61-1.15-3.08-2-4.49-.71-1.18-1.49-2.37-2.67-3.08-.79-.48-1.7-.7-2.59-.92-1.3-.32-2.66-.63-3.95-.28-1.89.51-3.15,2.28-4.87,3.18-.63-.72-1.6-1.05-2.55-1.15-2.62-.27-5.31,1.15-6.67,3.4s-1.37,5.23-.12,7.55c.59,1.1,1.65,2.14,2.89,2.02-1.61,0-3.15,1.19-3.54,2.75-.14.57-.15,1.16-.11,1.74.2,2.66,1.56,5.28,3.82,6.7s5.41,1.44,7.51-.2c.41-.32.79-.72.97-1.21-.02.54.32,1.05.77,1.35s1,.4,1.54.43c1.97.11,3.98-.79,5.21-2.34,1.23-1.55,1.64-3.57,2-5.51"/>
      <g>
        <g>
          <path class="cls-11" d="M597.86,458.83c1.12.13,2.35.35,3.06,1.22.54.66.65,1.57.67,2.42.08,3.31-1.01,6.63-3.02,9.25"/>
          <path class="cls-14" d="M597.86,458.83c5.64-.56,4.56,6.23,3.03,9.61-.56,1.24-1.36,2.36-2.32,3.29,1.78-3.38,3.11-7.27,2.31-11.01-.39-1.09-1.75-1.56-3.02-1.89h0Z"/>
        </g>
        <path class="cls-3" d="M590.84,474.6c-2.72,2.94-7.39,3.04-11.1,2.61-3.57-1.02-4.24-9.21-3.18-12.12,1.37-2.35,4.42-2.99,6.95-3.03.01-.18-.34-.52-.43-.72-.94-1.34-1.32-2.99-.56-4.47,1.26-2.95,4.22-5.27,7.46-5.17,2.79.11,5.56,2.18,6.01,5.01.04.3-.04-.14-.03-.33-.02-1.79,1.68-3.06,3.34-3.21,6.24-.57,9.57,6.7,6.27,11.66-.09.23-.58.6-.05.57,3.33.67,2.44,5.13,1.69,7.49-1,2.42-3.91,3.52-6.39,3.3-.12-.01-.22-.02-.24.01.24.66.48,1.67.14,2.68-1.07,3.13-6.59,3.16-7.03,3.16-.63,0-5.37-.04-6.46-2.82-.35-.9-.21-1.8-.04-2.42"/>
      </g>
      <g>
        <path class="cls-12" d="M621.23,484.39c-5.94,9.62-21.04,5.18-19.21-6.44.12-.73.71-2.59,2.25-3.26.69-.3,1.36-.29,1.8-.23-.41-.32-.98-.87-1.29-1.71-.74-1.97.48-4.09,1.62-5.2,1.83-1.77,4.99-2.39,6.89-1.01.6.43.95.97,1.15,1.36-.09-.43-.18-1.15.06-1.95.46-1.52,1.76-2.28,2.26-2.54,2.6-1.36,5.84-.4,8.06,1.26,1.69,1.27,1.58,3.63,1.61,4.05.05.71-.02,1.3-.1,1.71.32-.26.75-.52,1.29-.58,3.27-.34,8.13,7.23,6.04,10.61-.75,1.21-2.71,2.42-4.45,2.02-.44-.1-.79-.29-1.03-.45.04.48.04,1.22-.19,2.07-.65,2.38-2.61,3.58-3.04,3.82-3.17,1.82-6.64.04-6.87-.08"/>
        <g>
          <path class="cls-11" d="M615.4,469.59c2.24-.54,4.65-.3,6.74.66,1.76.81,3.38,2.29,3.7,4.21"/>
          <path class="cls-14" d="M615.4,469.59c3.76-1.74,10.18.17,10.44,4.87-1.73-3.97-6.43-5.02-10.44-4.87h0Z"/>
        </g>
      </g>
      <g>
        <path class="cls-12" d="M546.72,498.25c-5.94,9.62-21.04,5.18-19.21-6.44.12-.73.71-2.59,2.25-3.26.69-.3,1.36-.29,1.8-.23-.41-.32-.98-.87-1.29-1.71-.74-1.97.48-4.09,1.62-5.2,1.83-1.77,4.99-2.39,6.89-1.01.6.43.95.97,1.15,1.36-.09-.43-.18-1.15.06-1.95.46-1.52,1.76-2.28,2.26-2.54,2.6-1.36,5.84-.4,8.06,1.26,1.69,1.27,1.58,3.63,1.61,4.05.05.71-.02,1.3-.1,1.71.32-.26.75-.52,1.29-.58,3.27-.34,8.13,7.23,6.04,10.61-.75,1.21-2.71,2.42-4.45,2.02-.44-.1-.79-.29-1.03-.45.04.48.04,1.22-.19,2.07-.65,2.38-2.61,3.58-3.04,3.82-3.17,1.82-6.64.04-6.87-.08"/>
        <g>
          <path class="cls-11" d="M540.89,483.45c2.24-.54,4.65-.3,6.74.66,1.76.81,3.38,2.29,3.7,4.21"/>
          <path class="cls-14" d="M540.89,483.45c3.76-1.74,10.18.17,10.44,4.87-1.73-3.97-6.43-5.02-10.44-4.87h0Z"/>
        </g>
      </g>
      <path class="cls-9" d="M620.14,501.48c1.25,1.38,2.88,2.41,4.65,2.95,3.3,1.01,7.18.18,9.53-2.34,1.12-1.21,1.86-2.71,2.53-4.22.55-1.26,1.08-2.58.99-3.95-.06-.92-.4-1.79-.73-2.65-.49-1.24-1.02-2.54-2.04-3.4-1.5-1.25-3.67-1.27-5.41-2.16.23-.93-.06-1.92-.53-2.75-1.29-2.3-3.99-3.69-6.62-3.51s-5.07,1.88-6.25,4.24c-.56,1.11-.81,2.58,0,3.52-.92-1.32-2.78-1.89-4.29-1.32-.55.21-1.03.54-1.49.91-2.06,1.69-3.43,4.31-3.29,6.97.14,2.66,1.92,5.26,4.47,6.03.5.15,1.04.24,1.55.1-.46.29-.68.86-.66,1.4s.25,1.05.53,1.51c1.04,1.68,2.93,2.81,4.9,2.92,1.97.11,3.86-.71,5.66-1.53"/>
      <g>
        <path class="cls-12" d="M567.03,469.77c-11.29.66-16.32-14.25-5.76-19.42.67-.33,2.53-.91,3.96-.04.64.39,1.02.95,1.22,1.34.03-.52.15-1.3.65-2.04,1.18-1.73,3.63-1.96,5.18-1.66,2.49.48,4.82,2.71,4.78,5.06-.01.74-.25,1.33-.45,1.72.3-.32.84-.81,1.63-1.07,1.51-.5,2.88.13,3.38.39,2.6,1.35,3.68,4.56,3.6,7.32-.06,2.11-2.07,3.38-2.39,3.64-.55.44-1.08.72-1.46.9.4.11.86.31,1.21.72,2.16,2.48-1.26,10.81-5.22,11.04-1.42.08-3.54-.83-4.21-2.49-.17-.42-.22-.81-.22-1.11-.37.31-.98.74-1.8,1.03-2.32.84-4.43-.08-4.88-.29-3.31-1.55-3.84-5.41-3.87-5.67"/>
        <g>
          <path class="cls-11" d="M575.8,456.5c1.73,1.52,2.92,3.64,3.33,5.9.35,1.91.06,4.08-1.32,5.44"/>
          <path class="cls-14" d="M575.8,456.5c3.58,2.07,5.71,8.43,2.01,11.34,2.26-3.69.42-8.14-2.01-11.34h0Z"/>
        </g>
      </g>
      <g>
        <g>
          <path class="cls-11" d="M594.91,480.5c1.12.13,2.35.35,3.06,1.22.54.66.65,1.57.67,2.42.08,3.31-1.01,6.63-3.02,9.25"/>
          <path class="cls-14" d="M594.91,480.5c5.64-.56,4.56,6.23,3.03,9.61-.56,1.24-1.36,2.36-2.32,3.29,1.78-3.38,3.11-7.27,2.31-11.01-.39-1.09-1.75-1.56-3.02-1.89h0Z"/>
        </g>
        <path class="cls-3" d="M587.89,496.27c-2.72,2.94-7.39,3.04-11.1,2.61-3.57-1.02-4.24-9.21-3.18-12.12,1.37-2.35,4.42-2.99,6.95-3.03.01-.18-.34-.52-.43-.72-.94-1.34-1.32-2.99-.56-4.47,1.26-2.95,4.22-5.27,7.46-5.17,2.79.11,5.56,2.18,6.01,5.01.04.3-.04-.14-.03-.33-.02-1.79,1.68-3.06,3.34-3.21,6.24-.57,9.57,6.7,6.27,11.66-.09.23-.58.6-.05.57,3.33.67,2.44,5.13,1.69,7.49-1,2.42-3.91,3.52-6.39,3.3-.12-.01-.22-.02-.24.01.24.66.48,1.67.14,2.68-1.07,3.13-6.59,3.16-7.03,3.16-.63,0-5.37-.04-6.46-2.82-.35-.9-.21-1.8-.04-2.42"/>
      </g>
      <g>
        <path class="cls-12" d="M576.17,503.65c-9.91,5.44-20.86-5.87-13.53-15.07.46-.58,1.89-1.9,3.56-1.73.75.08,1.33.42,1.68.69-.2-.48-.42-1.24-.28-2.12.33-2.07,2.44-3.33,3.97-3.72,2.46-.64,5.52.38,6.49,2.52.31.67.35,1.31.33,1.75.13-.42.41-1.09,1.02-1.67,1.15-1.1,2.66-1.11,3.22-1.09,2.93.1,5.28,2.54,6.39,5.07.85,1.94-.42,3.94-.6,4.31-.31.64-.66,1.12-.93,1.44.41-.07.91-.09,1.41.13,3.01,1.31,3.5,10.3.02,12.21-1.25.68-3.56.77-4.87-.44-.33-.3-.54-.64-.68-.91-.2.44-.56,1.08-1.18,1.71-1.74,1.75-4.03,1.83-4.53,1.83-3.65.02-5.79-3.24-5.93-3.46"/>
        <g>
          <path class="cls-11" d="M578.41,487.9c2.21.63,4.19,2.03,5.54,3.9,1.13,1.58,1.81,3.66,1.14,5.48"/>
          <path class="cls-14" d="M578.41,487.9c4.13.34,8.77,5.17,6.68,9.38.45-4.3-3.12-7.53-6.68-9.38h0Z"/>
        </g>
      </g>
      <g>
        <g>
          <path class="cls-11" d="M621.09,397.67c.02-.6.16-1.07.7-1.3,1.18-.34,1.87-1.16,2.91-1.73.34-.24.68-.76.36-1.13-.59-.49-1.96-.19-2.38.46-.25.38-.16.85,0,1.28"/>
          <path class="cls-14" d="M621.09,397.67c-.15-.57,0-1.31.62-1.57.96-.42,1.92-1.46,2.7-1.86.12-.09.31-.3.29-.41,0,0,.06.06.06.06-.51-.37-1.7-.18-2.01.44-.11.25-.11.59-.07.93-.87-1.14.19-2.29,1.41-2.4,1.57-.2,2.17,1.23.88,2.2-.97.53-1.92,1.41-3.1,1.58-.34.02-.69.58-.78,1.03h0Z"/>
        </g>
        <path class="cls-12" d="M629.28,400.46c-.16-.15-.18-.43-.34-.43-.16,0-.1.4-.62.82-.45.37-.39.78-.09,1.44.46,1.08.52,2.36.09,3.47-.72,2.09-3.64,3.92-5.4,2.01-1.02-1.12-1.39-2.82-1.21-4.33.02-.32.04-.7-.11-.96-.47-.66-1.57-.29-2.23-.71-1.47-.75-2.15-2.82-1.92-4.35.48-1.17,1.8-.67,1.05-2.37-.47-1.39.58-2.38,1.78-2.86.48-.26.83-.67,1.13-1.13.79-1.25,2.23-2,3.65-2.36,2.45-.55,1.39,2.49,2.93,2.95.55.16.61.2,1.57.56.8.3,2.48.92,3.3,2.41.6,1.08.76,2.67.02,3.95-.94,1.64-3.11,2.36-3.62,1.89Z"/>
        <g>
          <path class="cls-11" d="M626.8,404.3c1.11,3.29-2.13,2.51-3.15.41"/>
          <path class="cls-14" d="M626.8,404.3c1.75,2.19-.76,3.75-2.47,1.86-.38-.41-.64-.92-.68-1.46.41.35.79.63,1.17.86,1.68.9,1.91.53,1.98-1.26h0Z"/>
        </g>
      </g>
      <g>
        <g>
          <path class="cls-11" d="M548.22,394.52c.02-.6.16-1.07.7-1.3,1.18-.34,1.87-1.16,2.91-1.73.34-.24.68-.76.36-1.13-.59-.49-1.96-.19-2.38.46-.25.38-.16.85,0,1.28"/>
          <path class="cls-14" d="M548.22,394.52c-.15-.57,0-1.31.62-1.57.96-.42,1.92-1.46,2.7-1.86.12-.09.31-.3.29-.41,0,0,.06.06.06.06-.51-.37-1.7-.18-2.01.44-.11.25-.11.59-.07.93-.87-1.14.19-2.29,1.41-2.4,1.57-.2,2.17,1.23.88,2.2-.97.53-1.92,1.41-3.1,1.58-.34.02-.69.58-.78,1.03h0Z"/>
        </g>
        <path class="cls-12" d="M556.4,397.32c-.16-.15-.18-.43-.34-.43-.16,0-.1.4-.62.82-.45.37-.39.78-.09,1.44.46,1.08.52,2.36.09,3.47-.72,2.09-3.64,3.92-5.4,2.01-1.02-1.12-1.39-2.82-1.21-4.33.02-.32.04-.7-.11-.96-.47-.66-1.57-.29-2.23-.71-1.47-.75-2.15-2.82-1.92-4.35.48-1.17,1.8-.67,1.05-2.37-.47-1.39.58-2.38,1.78-2.86.48-.26.83-.67,1.13-1.13.79-1.25,2.23-2,3.65-2.36,2.45-.55,1.39,2.49,2.93,2.95.55.16.61.2,1.57.56.8.3,2.48.92,3.3,2.41.6,1.08.76,2.67.02,3.95-.94,1.64-3.11,2.36-3.62,1.89Z"/>
        <g>
          <path class="cls-11" d="M553.93,401.16c1.11,3.29-2.13,2.51-3.15.41"/>
          <path class="cls-14" d="M553.93,401.16c1.75,2.19-.76,3.75-2.47,1.86-.38-.41-.64-.92-.68-1.46.41.35.79.63,1.17.86,1.68.9,1.91.53,1.98-1.26h0Z"/>
        </g>
      </g>
      <g>
        <g>
          <path class="cls-11" d="M456.51,425.01c.02-.6.16-1.07.7-1.3,1.18-.34,1.87-1.16,2.91-1.73.34-.24.68-.76.36-1.13-.59-.49-1.96-.19-2.38.46-.25.38-.16.85,0,1.28"/>
          <path class="cls-14" d="M456.51,425.01c-.15-.57,0-1.31.62-1.57.96-.42,1.92-1.46,2.7-1.86.12-.09.31-.3.29-.41,0,0,.06.06.06.06-.51-.37-1.7-.18-2.01.44-.11.25-.11.59-.07.93-.87-1.14.19-2.29,1.41-2.4,1.57-.2,2.17,1.23.88,2.2-.97.53-1.92,1.41-3.1,1.58-.34.02-.69.58-.78,1.03h0Z"/>
        </g>
        <path class="cls-12" d="M464.69,427.81c-.16-.15-.18-.43-.34-.43-.16,0-.1.4-.62.82-.45.37-.39.78-.09,1.44.46,1.08.52,2.36.09,3.47-.72,2.09-3.64,3.92-5.4,2.01-1.02-1.12-1.39-2.82-1.21-4.33.02-.32.04-.7-.11-.96-.47-.66-1.57-.29-2.23-.71-1.47-.75-2.15-2.82-1.92-4.35.48-1.17,1.8-.67,1.05-2.37-.47-1.39.58-2.38,1.78-2.86.48-.26.83-.67,1.13-1.13.79-1.25,2.23-2,3.65-2.36,2.45-.55,1.39,2.49,2.93,2.95.55.16.61.2,1.57.56.8.3,2.48.92,3.3,2.41.6,1.08.76,2.67.02,3.95-.94,1.64-3.11,2.36-3.62,1.89Z"/>
        <g>
          <path class="cls-11" d="M459.36,431.64c-1.11,3.29,2.13,2.51,3.15.41"/>
          <path class="cls-14" d="M459.36,431.64c.07,1.8.3,2.16,1.98,1.26.39-.23.76-.51,1.17-.86-.04.54-.3,1.05-.68,1.46-1.71,1.89-4.22.32-2.47-1.86h0Z"/>
        </g>
      </g>
      <g>
        <g>
          <path class="cls-9" d="M674.96,436.06c-2.25,1.26-3.32,3.58-2.76,5.41.57,1.85,2.6,2.54,2.95,2.65,2.7.92,5.07-.83,5.29-1,1.6.8,3.5.57,4.77-.56,1.47-1.32,1.81-3.61.72-5.42.2-.19,3.57-3.56,2.45-7.27-.11-.37-.43-1.33-1.28-2.14-2.68-2.54-9.04-2.58-10.45,1.45-.93,2.28.68,5.19-1.3,6.68-1,.7-2.93.35-3.72-.74-1.22-1.67.35-5.24,2.83-6.18,1.05-.4,2.05-.24,2.61-.1"/>
          <g>
            <path class="cls-11" d="M678.28,429.28c2.24-2.18,5.7-2.63,7.54.23"/>
            <path class="cls-14" d="M678.28,429.28c1.56-2.82,6.44-3.24,7.54.23-2.17-2.16-5.03-1.72-7.54-.23h0Z"/>
          </g>
        </g>
        <path class="cls-15" d="M676.14,429.58c.24-.22-.02-.65-.31-.46-.04.03-.07.06-.11.09-.06-.02-.12-.02-.19.02-.48.24-1.02.28-1.48.56-.41.26-.74.63-1,1.04-.05.08-.08.16-.12.24-.41.45-.76.95-.94,1.55-.15.48-.19,1.01-.06,1.5.07.25.22.5.43.67.07.1.12.22.22.31.44.37,1.05.48,1.6.52.26.02.54.01.78-.1.26-.12.41-.34.52-.59.21-.53.27-1.11.27-1.67,0-1.17-.27-2.48.37-3.53.03-.05.04-.09.04-.13Z"/>
      </g>
      <g>
        <path class="cls-9" d="M625.06,357.48c.68,2.7.26,3.76-.27,4.23-.36.31-.81.2-1.43.75-.65.58-.94,1.81-1.82,1.81-2.24-.27-2.18-4.79-.92-6.11.92-1.1,2.49-1.23,3.73-.66.06.03.2.08.37.08.16,0,.28-.06.34-.09,1.03-1.87,3.04-2.98,5.12-2.82,2.52.19,4.27,2.18,4.79,4.11.37,1.39.14,2.96-.67,4.15-.65,1.14-2.32,1.73-2.56,3.05-.2,1.27,1.09,2.46,1.02,3.7-.1,1.9-1.35,4.15-3.24,4.49-1.35.24-2.51-.58-2.57-.62-.74-.53-1.08-1.26-1.25-1.62-.5-1.07-.19-1.39-.58-1.83-.85-.96-2.6.34-3.67-.6-.76-.67-.43-1.81-1.58-2.65-.23-.17-.45-.27-.58-.32-2.74-.31-5.14-3.39-4.39-6.11,1.2-2.81,2.18-3.41,2.87-3.41,1.03,0,1.61,1.34,2.84,1.17.76-.11.9-.67,1.79-.96.99-.33,1.98-.02,2.64.28Z"/>
        <path class="cls-15" d="M624.27,358.65s.07-.06.08-.11c.04-.16-.05-.3-.2-.35-.65-.23-1.4-.34-2.04-.02-.27.13-.5.35-.65.6-.08.12-.13.27-.16.41-.03.16-.01.34-.03.48-.02.17-.12.31-.18.47-.06.15-.1.32-.13.48-.05.35-.06.69-.03,1.04.01.17.02.35.05.52.04.22.24.4.48.34.1-.03.18-.1.23-.18.02-.03.03-.05.05-.08.01-.02.02-.03.03-.05,0,0,.03-.04.01-.02.04-.06.1-.11.15-.16.06-.05.1-.09.15-.12.31-.22.65-.39.97-.58.37-.21.73-.42,1.1-.63.09-.05.14-.15.14-.24,0-.52-.01-1.05-.01-1.57,0-.08,0-.15,0-.22Z"/>
      </g>
      <g>
        <g>
          <path class="cls-9" d="M484.37,454.62c-1.24.01-2.52.57-3,1.74-.37.91-.69,2.71-2.01,2.18-2.07-1.3-6.04-1.95-7.37.54-.96,1.72.06,4.05,1.78,4.99.6.49,1.92.58,2.15,1.34-.04.31-.42.58-.66.84-.8.69-1.19,1.73-1.07,2.9.43,2.2.21,5.37,2.32,6.68,1.56.58,3.6.35,5.09-.42,1.3-.59,2.17-2.8,3.72-2.7,1,.13,1.8.98,2.8,1.08,1.18.16,2.23-.85,2.29-2.02.13-1.01-.63-2.3-.41-3.18.1-.51.49-.95.84-1.42.9-1.67,4.41-3.31,1.98-5.33-.72-.59-1.91-.66-2.55-1.09-1.06-.91-2.82-2.17-3.44-3.47-.43-1.22-.6-2.63-2.25-2.66h-.22Z"/>
          <path class="cls-9" d="M479.37,463.96c-.45,1.09-.25,2.13.35,2.54.24.16.62.29.94.14.76-.35.84-2.11.18-2.61-.52-.39-1.26.19-1.47-.08-.41-.54,1.87-3.63,3.23-3.21.27.08.52.23.75.63.34.59.48,1.37,1,1.81.5.47,1.18.8,1.27,1.47-.12,1.37.31,4.25-1.78,4.24-.72.01-1.47-.19-2.17-.09-.73.09-1.56.56-2,.26.23-.69.47-1.38.7-2.07"/>
        </g>
        <path class="cls-15" d="M481.61,464.99c-.02-.15-.08-.28-.14-.42-.03-.07-.05-.13-.07-.2,0-.03-.02-.07-.02-.11,0-.02,0-.08,0,0,0-.02,0-.03,0-.05-.02-.17-.04-.34-.12-.49-.11-.19-.34-.34-.56-.27-.14.04-.24.13-.33.24-.06-.03-.12-.04-.18-.02-.35.1-.48.45-.52.78-.04.33-.04.67,0,1,.02.17.04.37.1.53.04.11.1.2.2.26.11.07.24.08.36.04.05-.02.1-.04.15-.07.03-.01.06-.04.09-.05,0,0,.01,0,.02,0,.02,0,.04-.01.06-.02.04-.01.08-.02.12-.03.01,0,.03,0,.05,0,0,0,.01,0,.02,0,.03,0,.07,0,.1,0,.1,0,.19.01.28-.01.23-.07.31-.31.37-.51.06-.19.08-.38.05-.58Z"/>
        <path class="cls-15" d="M484.77,464.62c.01-.14-.14-.3-.28-.28-.9.12-1.13-1.11-1.39-1.72-.08-.19-.17-.39-.33-.53-.05-.05-.12-.06-.18-.08-.06-.14-.21-.26-.39-.16-.24.12-.48.25-.72.37-.23.12-.45.27-.43.56.02.25.19.44.36.6.16.15.29.32.4.51.22.37.35.79.42,1.22.07.39.14.9-.12,1.24-.15.2-.36.33-.53.52-.19.22-.34.48-.33.77,0,.14.13.3.28.28l2.61-.21c.19-.01.32-.17.27-.36-.11-.44-.04-.89.06-1.32.11-.47.23-.94.28-1.42Z"/>
      </g>
      <g>
        <g>
          <path class="cls-9" d="M470.63,508.02c-2.25,1.26-3.32,3.58-2.76,5.41.57,1.85,2.6,2.54,2.95,2.65,2.7.92,5.07-.83,5.29-1,1.6.8,3.5.57,4.77-.56,1.47-1.32,1.81-3.61.72-5.42.2-.19,3.57-3.56,2.45-7.27-.11-.37-.43-1.33-1.28-2.14-2.68-2.54-9.04-2.58-10.45,1.45-.93,2.28.68,5.19-1.3,6.68-1,.7-2.93.35-3.72-.74-1.22-1.67.35-5.24,2.83-6.18,1.05-.4,2.05-.24,2.61-.1"/>
          <g>
            <path class="cls-11" d="M473.95,501.24c2.24-2.18,5.7-2.63,7.54.23"/>
            <path class="cls-14" d="M473.95,501.24c1.56-2.82,6.44-3.24,7.54.23-2.17-2.16-5.03-1.72-7.54-.23h0Z"/>
          </g>
        </g>
        <path class="cls-15" d="M471.46,503.83c-.01-.76,0-1.52.06-2.28,0-.02-.01-.02-.01-.04.1-.06.17-.19.14-.3-.04-.16-.2-.22-.35-.2-1.09.17-2.13.75-2.84,1.59-.72.85-1.21,2.03-1.12,3.16.04.57.27,1.08.74,1.43.39.29.87.42,1.35.45.51.03,1.1-.06,1.52-.38.44-.33.58-.87.6-1.4.01-.3-.02-.6-.03-.9-.02-.38-.04-.76-.04-1.14Z"/>
      </g>
    </g>
  </g>
  <path class="cls-4" d="M675.38,637.65v-85.52c0-6.4-5.18-11.57-11.56-11.57h-158.21c-6.4,0-11.57,5.18-11.57,11.57v89.32c0,1.05.14,2.06.4,3.02h0c1.33,4.94,5.82,8.56,11.17,8.56h158.21c5.41,0,9.96-3.73,11.21-8.77"/>
  <g>
    <path class="cls-4" d="M494.03,540.56h181.36v19.7c0,4.29-3.49,7.78-7.78,7.78h-166.08c-4.14,0-7.5-3.36-7.5-7.5v-19.98h0Z" transform="translate(1169.41 1108.6) rotate(180)"/>
    <line class="cls-10" x1="654.1" y1="540.56" x2="632.9" y2="568.04"/>
    <line class="cls-10" x1="518.89" y1="540.56" x2="497.69" y2="568.04"/>
    <line class="cls-10" x1="551.77" y1="540.56" x2="530.57" y2="568.04"/>
    <line class="cls-10" x1="585.97" y1="540.56" x2="564.77" y2="568.04"/>
    <line class="cls-10" x1="620.17" y1="540.56" x2="598.97" y2="568.04"/>
  </g>
  <g>
    <path class="cls-13" d="M494.43,644.49c-9.72-.39-20.77-.26-32.84.84-7.99.74-15.32,1.8-21.91,2.99,5.64-5.97,24.63-26.1,24.63-26.1,0,0-12.18-11.61-20.49-19.54-4.32-4.1-7.58-7.22-7.58-7.22.16-1.83,5.48-3.22,13.93-3.98,14.17-1.28,25.78-1.45,32.84-.25.06.14.11.27.16.4,6.26,14.67,9.84,26.39,10.86,32.26.2,1.15.31,2.08.31,2.76.01.79.01,1.48.01,2.12"/>
    <path class="cls-13" d="M707.62,621.6s18.99,20.12,24.64,26.1c-6.56-1.22-13.89-2.29-21.91-2.99-13.13-1.16-25.07-1.09-35.32-.45.22-.9.35-1.83.35-2.81v-3.8c.26-1.15.29-2.31.32-3.48.05-1.66-.19-2.97-.32-3.63-.02-.12-.05-.24-.06-.31-.04-.19-.09-.39-.12-.57-.96-4.38-1.53-8.8-2.67-13.16-.64-2.41-.2-5.77,2.86-10.65,2.36-3.77,6.29-8.44,12.51-14.28.34-.31.69-.65,1.05-.97,7.05-1.2,18.66-1.04,32.83.25,8.47.76,13.78,2.15,13.94,3.98,0,0-3.28,3.12-7.58,7.23-8.32,7.92-20.5,19.54-20.5,19.54Z"/>
    <path class="cls-13" d="M483.16,583.03c0-.57,0-1.13,0-1.65,21.57-4.12,57.71-6.83,98.66-6.83,46.09,0,86.09,3.43,106.07,8.44-.02,12.45-.02,35.68-.02,49.22-19.95-5.02-59.96-8.45-106.05-8.45-40.93,0-77.06,2.7-98.63,6.82,0-14.81-.01-35.94-.02-47.56Z"/>
  </g>
  <text class="cls-16" transform="translate(509.19 612.31) rotate(-8.25) scale(1.49 1)"><tspan x="0" y="0">C</tspan></text>
  <text class="cls-16" transform="translate(526.87 609.88) rotate(-6.34) scale(1.49 1)"><tspan x="0" y="0">I</tspan></text>
  <text class="cls-16" transform="translate(537.81 608.68) rotate(-4.45) scale(1.49 1)"><tspan x="0" y="0">N</tspan></text>
  <text class="cls-16" transform="translate(555.37 607.42) rotate(-2.3) scale(1.49 1)"><tspan x="0" y="0">E</tspan></text>
  <text class="cls-16" transform="translate(570.5 606.82) rotate(.18) scale(1.49 1)"><tspan x="0" y="0">M</tspan></text>
  <text class="cls-16" transform="translate(593.39 607.06) rotate(2.74) scale(1.49 1)"><tspan x="0" y="0">A</tspan></text>
  <text class="cls-16" transform="translate(608.02 607.81) rotate(4.6) scale(1.49 1)"><tspan x="0" y="0">T</tspan></text>
  <text class="cls-16" transform="translate(623.69 609.17) rotate(6.35) scale(1.49 1)"><tspan x="0" y="0">I</tspan></text>
  <text class="cls-16" transform="translate(634.6 610.4) rotate(8.24) scale(1.49 1)"><tspan x="0" y="0">C</tspan></text>
  <text class="cls-16" transform="translate(652.22 613.05) rotate(10.5) scale(1.49 1)"><tspan x="0" y="0">A</tspan></text>
  <line class="cls-2" x1="524.8" y1="538.99" x2="519.58" y2="538.99"/>
  <polyline class="cls-2" points="640.13 538.99 626.22 538.99 626.15 538.99 617.32 538.99 617.3 538.99 606.17 538.99 606.15 538.99 598.58 538.99 598.55 538.99 590.67 538.99 590.65 538.99 586.36 538.99 580.56 538.99 565.02 538.99 564.97 538.99 562.91 538.99 562.87 538.99 543.73 538.99 541.82 538.99 529.81 538.99"/>
</svg>